<?xml version="1.0" encoding="UTF-8"?>
<svg version="1.1" xmlns="http://www.w3.org/2000/svg" width="353" height="335">
<path d="M0 0 C1.75978885 -0.01265991 1.75978885 -0.01265991 3.55512899 -0.02557558 C4.83993975 -0.01956553 6.1247505 -0.01355549 7.44849491 -0.00736332 C8.83034656 -0.01153641 10.21219478 -0.01701379 11.59403664 -0.02368313 C15.39075164 -0.03815989 19.18724998 -0.03388613 22.98397696 -0.02651632 C27.07881413 -0.02179245 31.17360389 -0.03428756 35.26842594 -0.04453373 C43.29026311 -0.06174235 51.31202201 -0.06255748 59.33387285 -0.05732083 C65.8530663 -0.05328178 72.3722366 -0.05471952 78.89142895 -0.06006908 C79.81876518 -0.06081751 80.7461014 -0.06156593 81.70153873 -0.06233703 C83.58533168 -0.06386848 85.46912462 -0.06540683 87.35291756 -0.066952 C105.0244068 -0.08068447 122.6958518 -0.07523407 140.36734004 -0.06376678 C156.53902871 -0.05383329 172.71060299 -0.06677576 188.88227402 -0.09070098 C205.48235538 -0.11507523 222.08238341 -0.12470399 238.6824823 -0.11804825 C248.00419317 -0.11455234 257.32581603 -0.11681257 266.64751339 -0.13429928 C274.58277304 -0.14900033 282.51788272 -0.14968422 290.45313936 -0.13222837 C294.5025192 -0.12369869 298.55163091 -0.12161655 302.60099697 -0.13687992 C306.30768461 -0.15067878 310.01387318 -0.14602644 313.72053159 -0.12664068 C315.69720548 -0.12107652 317.67390446 -0.1351922 319.65053076 -0.14999479 C330.59753902 -0.05862118 330.59753902 -0.05862118 335.16970158 4.38031673 C338.90529525 8.75980929 338.59502645 13.18070649 338.55738163 18.663764 C338.56545994 20.07136455 338.56545994 20.07136455 338.57370144 21.50740147 C338.58801622 24.65397512 338.58086835 27.80013016 338.57375431 30.94672298 C338.57945629 33.20220434 338.58641988 35.4576828 338.59455204 37.7131567 C338.61252451 43.84374473 338.61130649 49.97418993 338.60560966 56.10479641 C338.60252151 61.22609394 338.60860661 66.34736389 338.6146484 71.46865749 C338.62951171 84.24973372 338.6258692 97.03070896 338.6137851 109.81177902 C338.60387007 120.88960283 338.61676255 131.9672592 338.64071929 143.04505718 C338.66516344 154.43469524 338.67430543 165.82423348 338.66806656 177.21390533 C338.66470157 183.60212076 338.66708085 189.99019812 338.68431759 196.37839413 C338.69983715 202.39325622 338.69577534 208.40780057 338.67701244 214.42265034 C338.67333942 216.62317184 338.67639723 218.82371714 338.68689823 221.02421665 C338.76435346 238.60615662 337.33945277 253.22355329 324.91579533 266.85297298 C313.69089942 277.64544914 301.2500162 281.69392441 286.00693607 281.64774227 C284.35047747 281.65453894 284.35047747 281.65453894 282.66055506 281.66147292 C278.97060855 281.67410459 275.28080986 281.67249731 271.59084415 281.67084408 C268.94083454 281.67683013 266.29083638 281.68357961 263.64083195 281.6911993 C257.19523528 281.70777724 250.74967521 281.71330741 244.30405901 281.71442406 C239.06122092 281.71537616 233.81839485 281.71949452 228.57556057 281.72582531 C213.69220308 281.74342979 198.80887437 281.75266555 183.92550639 281.75116436 C183.12396922 281.75108445 182.32243205 281.75100454 181.49660587 281.7509222 C180.69408332 281.75084044 179.89156076 281.75075868 179.06471934 281.75067444 C166.06654248 281.749862 153.06848161 281.76899111 140.07033829 281.79719894 C126.70535733 281.8259726 113.34043287 281.83973674 99.97542018 281.83801138 C92.47948536 281.83734898 84.98367213 281.8427754 77.48776531 281.86436749 C71.10415645 281.88263851 64.72072427 281.88687841 58.33710048 281.87334864 C55.08473953 281.86684828 51.83278486 281.86879672 48.58044338 281.88405514 C29.85837798 281.96617239 14.26505432 281.40562247 -0.30295467 268.12641048 C-10.22483676 257.80699055 -15.14765981 245.93068626 -15.09772396 231.77129269 C-15.10225507 230.82216096 -15.10678619 229.87302923 -15.11145461 228.89513594 C-15.12408342 225.72470031 -15.12247923 222.55443679 -15.12082577 219.38397884 C-15.12681178 217.10699398 -15.1336175 214.83001114 -15.14118099 212.55303097 C-15.15883635 206.37554281 -15.16353606 200.19811007 -15.16481256 194.02059913 C-15.16671268 188.86375136 -15.17407115 183.70691648 -15.18115675 178.55007368 C-15.19650567 167.08134459 -15.20249483 155.61265158 -15.20114605 144.14391487 C-15.20106614 143.45646606 -15.20098623 142.76901725 -15.20090389 142.06073666 C-15.20082213 141.3724464 -15.20074037 140.68415615 -15.20065613 139.97500861 C-15.19984262 128.81175794 -15.21900012 117.64864199 -15.24718063 106.48543029 C-15.27590646 95.01553681 -15.28935488 83.54573637 -15.28799307 72.07580096 C-15.28748273 65.63920402 -15.29320663 59.20275974 -15.31434917 52.76619434 C-15.33368089 46.71604799 -15.3338906 40.66620081 -15.31931591 34.61604404 C-15.31722073 32.3948374 -15.32197068 30.17361226 -15.33403683 27.9524374 C-15.34943397 24.92205673 -15.34021746 21.89271485 -15.32477474 18.86235714 C-15.33506187 17.98190902 -15.34534899 17.1014609 -15.35594785 16.19433254 C-15.29506046 10.79394673 -14.53185275 7.59011753 -10.83029842 3.38031673 C-7.1090588 0.70412543 -4.55781197 0.00463267 0 0 Z M13.16970158 28.38031673 C13.08720158 62.70031673 13.00470158 97.02031673 12.91970158 132.38031673 C12.88328556 143.21875423 12.84686954 154.05719173 12.80935001 165.22406673 C12.79597265 174.93573411 12.79597265 174.93573411 12.78792667 184.64740658 C12.78419859 188.97463838 12.76920291 193.30167409 12.74739933 197.62885189 C12.71994891 203.14990705 12.71173951 208.67067733 12.71741247 214.1917944 C12.71622634 216.21710968 12.70830258 218.242435 12.69284105 220.26769161 C12.67290283 223.00676392 12.67775546 225.74473397 12.68868351 228.48383236 C12.67703285 229.27350903 12.66538219 230.06318569 12.65337849 230.87679195 C12.72246005 237.33245676 14.67668024 242.49131215 18.91579533 247.40375423 C19.75304142 248.07277767 19.75304142 248.07277767 20.60720158 248.75531673 C21.16278751 249.21680111 21.71837345 249.67828548 22.29079533 250.15375423 C27.93948717 253.84125785 33.18634782 253.66788711 39.73287296 253.64774227 C40.80885282 253.65227338 41.88483267 253.6568045 42.99341798 253.66147292 C46.60528251 253.67415113 50.21699692 253.67249431 53.82888126 253.67084408 C56.41597024 253.67682722 59.00305742 253.68363227 61.59014225 253.6911993 C67.89243243 253.70780553 74.19468519 253.7133087 80.49699542 253.71442406 C85.62123265 253.71537483 90.74545756 253.71948656 95.8696909 253.72582531 C110.40367294 253.74343762 124.93762547 253.75266434 139.47161826 253.75116436 C140.25499357 253.75108445 141.03836888 253.75100454 141.84548283 253.7509222 C142.62981682 253.75084044 143.41415082 253.75075868 144.22225252 253.75067444 C156.92909654 253.74986181 169.63582195 253.76899371 182.34263167 253.79719894 C195.39561511 253.82594345 208.44854074 253.83973833 221.50155663 253.83801138 C228.82749995 253.83734796 236.15331897 253.84281894 243.47923374 253.86436749 C250.3706464 253.88450827 257.26179264 253.88388951 264.15321827 253.86933422 C266.68116101 253.86724217 269.20912008 253.87197049 271.7370348 253.88405514 C275.19119697 253.89949677 278.64445288 253.89020533 282.09859562 253.87479305 C283.59497189 253.89022374 283.59497189 253.89022374 285.12157798 253.90596616 C292.23410897 253.83595922 298.68819085 252.61340674 304.05418944 247.63029516 C309.37549259 241.84825132 310.46693912 236.61975777 310.41021061 228.84459591 C310.41192265 227.98892529 310.41363468 227.13325466 310.4153986 226.25165462 C310.41870778 223.37673254 310.40766388 220.50204369 310.39675236 217.62714291 C310.39613969 215.53396169 310.39640667 213.44078006 310.39748287 211.34759903 C310.39793462 205.73931138 310.38633814 200.13110898 310.372262 194.52284145 C310.36087692 189.2613412 310.36033602 183.99986175 310.35891056 178.73834896 C310.34841354 163.34816025 310.32049127 147.95798742 310.29470158 132.56781673 C310.25345158 98.18594173 310.21220158 63.80406673 310.16970158 28.38031673 C212.15970158 28.38031673 114.14970158 28.38031673 13.16970158 28.38031673 Z " fill="#CCCCCC" transform="translate(14.83029842376709,53.619683265686035)"/>
<path d="M0 0 C15.27832575 13.10530875 23.57105149 30.3615584 25.28515625 50.3203125 C25.81009035 68.89841489 19.46574972 86.21603307 7 100 C6.47019531 100.60972656 5.94039063 101.21945313 5.39453125 101.84765625 C-6.16408962 114.33975244 -22.97166613 120.85002866 -39.62890625 122.3203125 C-57.72250122 122.89593058 -74.80268091 117.46191215 -88.5 105.5 C-90.02377518 104.02415814 -91.52577456 102.52533909 -93 101 C-93.64453125 100.34128906 -94.2890625 99.68257813 -94.953125 99.00390625 C-107.57205866 85.3699714 -112.63941551 68.35909404 -112.3046875 50.0234375 C-111.17113729 30.94044754 -102.85899899 14.90845036 -89 2 C-63.16052935 -20.16419036 -26.98929978 -20.30133547 0 0 Z M-75.24609375 27.796875 C-82.30196364 36.6599276 -84.81615247 46.86906952 -84 58 C-82.52036576 70.19135257 -76.40586994 79.29184166 -67 87 C-57.53232644 93.09758161 -47.3968787 95.42951154 -36.26953125 93.53515625 C-25.19859412 90.89624458 -15.60481207 85.00824747 -9.30859375 75.42578125 C-3.38615194 65.19351431 -1.62424659 55.7113309 -4.125 44.125 C-7.26865489 32.47584894 -13.97659236 23.70610414 -24.375 17.6875 C-42.27442951 8.51771029 -61.6089718 13.36081055 -75.24609375 27.796875 Z " fill="#CCCCCC" transform="translate(220,141)"/>
<path d="M0 0 C1.49956993 -0.00786278 1.49956993 -0.00786278 3.0294342 -0.0158844 C5.1399747 -0.02229691 7.25055097 -0.0209776 9.36108398 -0.01245117 C12.58316968 -0.0039445 15.80348009 -0.03270895 19.02539062 -0.06445312 C21.07942655 -0.06606541 23.13346561 -0.06548709 25.1875 -0.0625 C26.62681129 -0.07935097 26.62681129 -0.07935097 28.09519958 -0.09654236 C33.93989734 -0.03591535 37.17866398 0.60164462 41.66015625 4.43359375 C44.82299856 8.12357645 45.18008252 11.51213229 45.015625 16.21875 C44.31244145 20.60012443 41.85490128 23.35085607 38.66015625 26.24609375 C35.43115653 28.16331233 32.3575635 28.55748354 28.64526367 28.59472656 C27.86732956 28.60433411 27.08939545 28.61394165 26.28788757 28.62384033 C25.45554092 28.62809021 24.62319427 28.63234009 23.765625 28.63671875 C22.46725456 28.64526886 22.46725456 28.64526886 21.14265442 28.6539917 C19.31280738 28.66342576 17.48294347 28.66996934 15.65307617 28.67382812 C12.86802179 28.68352286 10.08370912 28.71455657 7.29882812 28.74609375 C5.51693144 28.75262558 3.73502951 28.75787534 1.953125 28.76171875 C1.12685104 28.77406555 0.30057709 28.78641235 -0.55073547 28.7991333 C-5.89949447 28.77874678 -9.60106788 27.96647228 -14.33984375 25.43359375 C-18.58866236 20.8493421 -19.69972113 17.86718487 -19.62109375 11.75390625 C-19.08004972 7.29029304 -16.72371495 4.56723534 -13.34155273 1.79663086 C-8.92257536 -0.20996944 -4.80066096 -0.01465632 0 0 Z " fill="#CBCBCB" transform="translate(272.33984375,-0.43359375)"/>
</svg>
