<?xml version="1.0" encoding="UTF-8"?>
<svg version="1.1" xmlns="http://www.w3.org/2000/svg" width="483" height="471">
<path d="M0 0 C1.20863205 -0.0159874 2.4172641 -0.03197479 3.66252136 -0.04844666 C4.96151871 -0.05380936 6.26051605 -0.05917206 7.59887695 -0.06469727 C8.95783073 -0.07367598 10.31678357 -0.08279803 11.67573547 -0.09205627 C14.52278027 -0.10851894 17.36970791 -0.11624079 20.21679688 -0.11914062 C23.84035012 -0.12450735 27.46277949 -0.16212562 31.08601665 -0.20788479 C33.89414844 -0.23784269 36.70201638 -0.24486826 39.51029396 -0.24586678 C41.48766106 -0.25204505 43.46491265 -0.28142333 45.44206238 -0.31138611 C53.2688413 -0.27253499 59.4375471 0.6501324 65.8996582 5.30639648 C73.32781329 13.05384697 74.26098762 21.12001672 74.9699707 31.48608398 C75.05592499 32.65398468 75.14187927 33.82188538 75.23043823 35.025177 C75.50242381 38.74343287 75.76368115 42.46235335 76.0246582 46.18139648 C76.20754423 48.70748949 76.39112995 51.23353194 76.57543945 53.75952148 C77.02495663 59.94125023 77.4656758 66.12355877 77.8996582 72.30639648 C79.04610788 72.30354858 79.04610788 72.30354858 80.21571815 72.30064315 C125.51750328 72.18874509 170.81927338 72.10295982 216.12116902 72.05106984 C221.56100419 72.04481633 227.00083908 72.03834471 232.44067383 72.03173828 C234.06512891 72.02977095 234.06512891 72.02977095 235.72240128 72.02776388 C253.25614218 72.00600921 270.78980108 71.96658732 288.32349335 71.9206325 C306.31559396 71.87386963 324.30765164 71.84610143 342.29981053 71.83595401 C353.40135424 71.82909452 364.5026662 71.80743192 375.60413857 71.76681415 C383.21754433 71.74037792 390.83083032 71.73239751 398.44427864 71.7388896 C402.83645438 71.7420911 407.22822522 71.73719449 411.6203289 71.71036911 C415.64511989 71.68596709 419.66923519 71.68485346 423.69405784 71.70190201 C425.14646052 71.70400783 426.59890605 71.69772369 428.05122493 71.68198057 C438.05628111 71.57987315 445.51423552 72.82717473 453.3371582 79.33374023 C460.98697395 88.68563999 460.53857979 97.34615253 459.41139162 109.07522917 C459.03068367 112.75672031 458.61896628 116.43439821 458.203125 120.11206055 C458.02025799 121.77251801 457.83795179 123.43303731 457.65615845 125.09361267 C457.16414981 129.57179918 456.66391903 134.04903071 456.16180015 138.52609348 C455.63466207 143.23600356 455.11409368 147.94664067 454.59248352 152.65716553 C453.71527564 160.56925367 452.83261638 168.48071957 451.94677734 176.3918457 C450.9269801 185.49998837 449.91621146 194.60909885 448.91022938 203.71877694 C447.93762089 212.52397231 446.95814022 221.32839097 445.97574806 230.13249969 C445.56006565 233.85908184 445.14679819 237.58591959 444.73557091 241.31299591 C444.24942686 245.71647472 443.75721932 250.11923703 443.26060867 254.52154732 C443.08079364 256.12393684 442.90295661 257.72654998 442.72740746 259.32941246 C439.82845673 285.75987647 434.63143653 308.3815505 413.51293945 326.31420898 C392.76265025 342.1328151 368.35320529 342.32216112 343.43945312 344.09399414 C341.12457571 344.26146431 338.80972139 344.42925403 336.49488831 344.59733582 C330.2553477 345.04930157 324.01546163 345.49630799 317.77546859 345.94197893 C312.54478106 346.31592357 307.31425315 346.69207631 302.08371717 347.06813371 C289.02924907 348.00667511 275.97440572 348.93989779 262.91941188 349.87109368 C251.63008097 350.67653329 240.34128887 351.48926864 229.05272337 352.30535944 C217.40882702 353.14705808 205.76455508 353.9833793 194.11987573 354.81417692 C187.60343633 355.27925245 181.08716726 355.74644923 174.57127953 356.21919632 C168.4394175 356.66387519 162.30709438 357.10157051 156.1743679 357.53415871 C153.93950967 357.69293826 151.70481791 357.85408398 149.47032547 358.01793098 C138.96952438 358.78656499 128.49577185 359.44267297 117.96382141 359.49960327 C117.17573316 359.50695389 116.3876449 359.51430452 115.57567519 359.52187788 C95.4786545 359.44100008 78.90351136 350.66509141 64.5012207 337.03686523 C52.65224766 324.84415066 46.45660895 309.03141695 44.90982056 292.27955627 C44.82627843 291.40863454 44.74273629 290.53771281 44.65666258 289.64039952 C43.69241359 279.410835 42.89814265 269.16782729 42.11206055 258.92333984 C41.94446108 256.76091125 41.77667491 254.59849712 41.60871887 252.43609619 C41.15831425 246.62904372 40.71079556 240.8217725 40.26407576 235.01443553 C39.88953303 230.14813099 39.51369748 225.28192659 39.13792098 220.41571718 C38.25163596 208.93746804 37.36787473 197.45902645 36.4855957 185.98046875 C35.57726096 174.1636506 34.66409151 162.34721276 33.74866712 150.5309419 C32.96005407 140.34894164 32.17469605 130.16669373 31.39187777 119.98424631 C30.92547257 113.91815284 30.45779228 107.85216454 29.98685837 101.78642082 C29.54479875 96.09104095 29.10680727 90.39536242 28.67189598 84.69943237 C28.5121083 82.61566093 28.35089748 80.53199803 28.1881237 78.44845772 C26.61061323 58.23519258 26.61061323 58.23519258 26.8996582 49.30639648 C26.06829346 49.32210693 25.23692871 49.33781738 24.38037109 49.35400391 C21.25490684 49.40555482 18.12966146 49.44295003 15.00390625 49.47119141 C13.00221245 49.49345106 11.00071546 49.53159795 8.99926758 49.57006836 C-1.61100432 49.65024674 -9.54008293 48.76893595 -17.36987305 41.23608398 C-23.03958249 34.91365404 -23.76321969 29.07566471 -23.4753418 20.64624023 C-22.60065357 12.85604824 -19.03322547 8.74007437 -13.19799805 3.75170898 C-8.91026403 0.79740436 -5.16115489 0.05179761 0 0 Z M81.8996582 121.30639648 C81.85841747 131.54770176 81.85841747 131.54770176 82.33503723 141.69354248 C82.4316716 143.00260056 82.52830597 144.31165863 82.62786865 145.66038513 C82.73633968 147.06290528 82.84492495 148.4654166 82.95361328 149.86791992 C83.06735795 151.38227993 83.18070373 152.89666995 83.29368591 154.41108704 C83.59893234 158.48348504 83.91053627 162.55537099 84.22401261 166.62714291 C84.42006845 169.17720444 84.61477344 171.72736556 84.80902672 174.277565 C85.48806729 183.19074011 86.17252206 192.10348133 86.86181641 201.01586914 C87.50237006 209.30003758 88.13058477 217.58508071 88.75320131 225.87061477 C89.29030111 233.01044733 89.83625892 240.14956753 90.38899726 247.28820634 C90.71810025 251.54068723 91.04363584 255.79336584 91.36011696 260.04680634 C91.6577717 264.04337506 91.96648685 268.03894067 92.28351784 272.03401756 C92.39752811 273.49414314 92.5076776 274.95457648 92.61353683 276.41531563 C93.39521446 287.15555522 94.21797403 296.545517 101.89575195 304.57592773 C113.8653315 314.91223132 133.40286206 309.82327893 147.90332031 308.77758789 C150.2287707 308.61299839 152.55424648 308.4487675 154.87974548 308.28486633 C161.16925415 307.84042185 167.45836625 307.39058683 173.74739909 306.93946505 C179.67501125 306.51482703 185.60285769 306.09349206 191.53068454 305.67186348 C203.98787607 304.78560876 216.44467879 303.89398321 228.90136112 303.00060396 C240.27253716 302.18522854 251.64414767 301.3761048 263.01598506 300.57001014 C274.72251974 299.74014253 286.42876595 298.90631427 298.13470846 298.06813371 C304.69475095 297.59850535 311.25489167 297.13038362 317.81532097 296.66618729 C323.98564258 296.22939578 330.15556885 295.78738259 336.32523537 295.34143639 C338.58207023 295.1791647 340.8390349 295.01868637 343.096138 294.86018944 C366.1535994 294.61913028 366.1535994 294.61913028 385.64575195 284.51733398 C392.4603109 276.31371626 392.48096943 265.36383201 393.59545898 255.12939453 C393.7529703 253.71580937 393.91091072 252.30227197 394.06924438 250.88877869 C394.49510317 247.07560432 394.91484027 243.26177924 395.33331156 239.447788 C395.77309794 235.44812777 396.21817837 231.44905639 396.66256714 227.4499054 C397.40721956 220.74154762 398.14809513 214.03278145 398.88647461 207.32373047 C399.73997847 199.56886876 400.59845743 191.81457087 401.45980847 184.06057709 C402.37805321 175.79412625 403.29295122 167.52730765 404.20671988 159.26036096 C404.46992747 156.88100607 404.73373069 154.50171784 404.99765396 152.12244225 C405.41180341 148.38718841 405.82368971 144.65169164 406.23382187 140.91599464 C406.38464606 139.5452973 406.53621065 138.1746812 406.68856812 136.80415344 C406.8963089 134.93421002 407.10107844 133.06393721 407.30569458 131.19364929 C407.42108644 130.14712031 407.53647831 129.10059134 407.6553669 128.02234936 C407.95938164 125.0968966 407.95938164 125.0968966 407.8996582 121.30639648 C300.3196582 121.30639648 192.7396582 121.30639648 81.8996582 121.30639648 Z " fill="#CCCCCC" transform="translate(23.100341796875,-0.306396484375)"/>
<path d="M0 0 C6.51420857 3.7224049 10.84634174 8.66338447 13.15234375 15.84375 C14.86034632 23.4097779 13.63006301 30.28375533 9.625 36.9375 C4.52591979 42.73322874 -0.29405255 46.41239481 -8.05859375 47.21484375 C-16.49327813 47.65538141 -22.70351665 45.82875675 -29.22265625 40.3984375 C-34.04963704 35.39355816 -36.21808154 29.25929602 -36.46875 22.35546875 C-36.00468258 14.80277156 -33.69186054 8.7736511 -28.0625 3.625 C-19.65062267 -2.88799363 -9.81533681 -4.48574216 0 0 Z " fill="#CCCCCC" transform="translate(385.375,424.0625)"/>
<path d="M0 0 C5.03070085 4.28619967 7.92181107 9.47903039 9 16 C9.26823377 23.83466142 7.80973976 30.84048265 2.42578125 36.71875 C-3.96283222 42.57617538 -10.30428712 44.65855932 -18.93359375 44.41015625 C-26.25871301 43.43036323 -32.32626445 39.80430128 -36.81640625 33.953125 C-40.72864561 27.49728447 -42.08307233 20.80162066 -40.4140625 13.40234375 C-38.15116401 5.8558887 -34.45304387 1.44998264 -28 -3 C-19.02121122 -7.78868735 -8.00202575 -5.63422491 0 0 Z " fill="#CCCCCC" transform="translate(173,427)"/>
</svg>
