<svg version="1.1" id="Layer_1" xmlns="http://www.w3.org/2000/svg" xmlns:xlink="http://www.w3.org/1999/xlink" x="0px" y="0px"
	 width="100%" viewBox="0 0 323 242" enable-background="new 0 0 323 242" xml:space="preserve">
<path fill="#000000" opacity="1.000000" stroke="none" 
	d="
M324.000000,29.000004 
	C324.000000,57.020893 324.000000,85.041786 323.699463,113.820511 
	C323.000183,114.278603 322.409851,114.064949 322.230743,113.666489 
	C318.016418,104.290451 310.123840,101.037407 300.580444,101.031898 
	C208.431808,100.978714 116.283096,100.977936 24.134455,101.035454 
	C15.294686,101.040970 7.538027,103.584869 2.928545,112.038383 
	C2.646490,112.555656 1.659172,112.688362 1.000000,113.000000 
	C1.000000,85.645775 1.000000,58.291542 1.371645,30.470396 
	C2.557880,30.897003 3.554483,31.682774 4.157586,32.701504 
	C8.139035,39.426769 14.710479,41.877918 21.768549,41.890266 
	C115.660614,42.054550 209.553085,42.026516 303.445404,41.951942 
	C311.350769,41.945663 317.290436,38.049973 321.358185,31.236132 
	C321.917633,30.299017 323.103943,29.736151 324.000000,29.000004 
z"/>
<path fill="#000000" opacity="1.000000" stroke="none" 
	d="
M324.000000,130.000000 
	C324.000000,158.020889 324.000000,186.041794 323.699646,214.820496 
	C323.000916,215.279114 322.414673,215.066299 322.231598,214.668121 
	C317.971649,205.403137 310.465332,201.956268 300.621796,201.962921 
	C208.086334,202.025345 115.550789,201.973709 23.015341,202.046768 
	C15.078134,202.053040 8.100125,204.557907 3.614398,211.812592 
	C3.047216,212.729874 1.886002,213.279861 1.000002,214.000000 
	C1.000000,186.645767 1.000000,159.291550 1.298720,131.180237 
	C6.374936,138.232925 13.103961,142.970001 22.469322,142.974258 
	C115.798454,143.016632 209.127655,143.037186 302.456635,142.914017 
	C308.503906,142.906036 314.310028,141.174927 318.471741,136.072647 
	C320.199371,133.954529 322.150513,132.018723 324.000000,130.000000 
z"/>
<path fill="#FFFFFF" opacity="1.000000" stroke="none" 
	d="
M324.000000,129.533142 
	C322.150513,132.018723 320.199371,133.954529 318.471741,136.072647 
	C314.310028,141.174927 308.503906,142.906036 302.456635,142.914017 
	C209.127655,143.037186 115.798454,143.016632 22.469322,142.974258 
	C13.103961,142.970001 6.374936,138.232925 1.298720,130.711578 
	C1.000000,125.311958 1.000000,119.623917 1.000000,113.467941 
	C1.659172,112.688362 2.646490,112.555656 2.928545,112.038383 
	C7.538027,103.584869 15.294686,101.040970 24.134455,101.035454 
	C116.283096,100.977936 208.431808,100.978714 300.580444,101.031898 
	C310.123840,101.037407 318.016418,104.290451 322.230743,113.666489 
	C322.409851,114.064949 323.000183,114.278603 323.699463,114.289169 
	C324.000000,119.022095 324.000000,124.044189 324.000000,129.533142 
z"/>
<path fill="#FFFFFF" opacity="1.000000" stroke="none" 
	d="
M324.000000,28.533142 
	C323.103943,29.736151 321.917633,30.299017 321.358185,31.236132 
	C317.290436,38.049973 311.350769,41.945663 303.445404,41.951942 
	C209.553085,42.026516 115.660614,42.054550 21.768549,41.890266 
	C14.710479,41.877918 8.139035,39.426769 4.157586,32.701504 
	C3.554483,31.682774 2.557880,30.897003 1.371645,30.001740 
	C1.000000,24.311958 1.000000,18.623919 1.365121,12.466359 
	C4.071716,9.581687 6.434714,7.186883 8.745470,4.742690 
	C9.880273,3.542358 10.918221,2.250460 12.000000,1.000000 
	C111.687561,1.000000 211.375122,1.000000 311.242188,1.300547 
	C315.237671,5.476249 319.045929,9.359177 322.898376,13.197721 
	C323.049683,13.348490 323.623230,13.075520 324.000000,13.000000 
	C324.000000,18.022093 324.000000,23.044184 324.000000,28.533142 
z"/>
<path fill="#FFFFFF" opacity="1.000000" stroke="none" 
	d="
M1.000002,214.467941 
	C1.886002,213.279861 3.047216,212.729874 3.614398,211.812592 
	C8.100125,204.557907 15.078134,202.053040 23.015341,202.046768 
	C115.550789,201.973709 208.086334,202.025345 300.621796,201.962921 
	C310.465332,201.956268 317.971649,205.403137 322.231598,214.668121 
	C322.414673,215.066299 323.000916,215.279114 323.699646,215.289154 
	C324.000000,220.022095 324.000000,225.044189 323.699463,230.243958 
	C319.523773,234.237640 315.640839,238.045929 311.802277,241.898392 
	C311.651520,242.049713 311.924469,242.623215 312.000000,243.000000 
	C212.312439,243.000000 112.624878,243.000000 12.755474,242.709839 
	C9.832505,239.906631 7.100102,237.383957 4.345912,234.885284 
	C3.255526,233.896042 2.116746,232.960175 0.999999,232.000000 
	C1.000000,226.311966 1.000000,220.623917 1.000002,214.467941 
z"/>
<path fill="#000000" opacity="1.000000" stroke="none" 
	d="
M324.000000,12.520824 
	C323.623230,13.075520 323.049683,13.348490 322.898376,13.197721 
	C319.045929,9.359177 315.237671,5.476249 311.710846,1.300547 
	C315.921997,1.000000 319.843964,1.000000 324.000000,1.000000 
	C324.000000,4.678596 324.000000,8.360122 324.000000,12.520824 
z"/>
<path fill="#000000" opacity="1.000000" stroke="none" 
	d="
M312.479187,243.000000 
	C311.924469,242.623215 311.651520,242.049713 311.802277,241.898392 
	C315.640839,238.045929 319.523773,234.237640 323.699463,230.710815 
	C324.000000,234.921982 324.000000,238.843948 324.000000,243.000000 
	C320.321411,243.000000 316.639893,243.000000 312.479187,243.000000 
z"/>
<path fill="#000000" opacity="1.000000" stroke="none" 
	d="
M11.517044,1.000000 
	C10.918221,2.250460 9.880273,3.542358 8.745470,4.742690 
	C6.434714,7.186883 4.071716,9.581687 1.365121,11.998421 
	C1.000000,8.412791 1.000000,4.825583 1.000000,1.000000 
	C4.342551,1.000000 7.688319,1.000000 11.517044,1.000000 
z"/>
<path fill="#000000" opacity="1.000000" stroke="none" 
	d="
M0.999999,232.482956 
	C2.116746,232.960175 3.255526,233.896042 4.345912,234.885284 
	C7.100102,237.383957 9.832505,239.906631 12.286817,242.709839 
	C8.412791,243.000000 4.825583,243.000000 1.000000,243.000000 
	C1.000000,239.657455 1.000000,236.311676 0.999999,232.482956 
z"/>
</svg>