<?xml version="1.0" encoding="UTF-8"?>
<svg version="1.1" xmlns="http://www.w3.org/2000/svg" width="281" height="353">
<path d="M0 0 C15.09852218 12.96670755 22.57985957 30.31656729 24.25 49.8125 C24.38284856 53.01737262 24.39698725 56.21721669 24.39526367 59.42456055 C24.39862228 60.33972946 24.4019809 61.25489838 24.40544128 62.19779968 C24.4148748 65.19828684 24.41689067 68.19871772 24.41796875 71.19921875 C24.42118703 73.30516075 24.42455152 75.41110253 24.42805481 77.51704407 C24.43402741 81.92404701 24.43589668 86.3310304 24.43530273 90.73803711 C24.43520132 96.35155478 24.44884089 101.9649454 24.46607494 107.57843304 C24.47726091 111.92735862 24.47921991 116.27625415 24.47869301 120.62519264 C24.47986369 122.69298553 24.48423346 124.76077943 24.49202538 126.82855797 C24.57972363 152.50823531 21.47547404 173.69267905 3.109375 193.171875 C-8.85809021 204.22379642 -23.57953178 210.28257397 -39.75 211.8125 C-40.49378906 211.8846875 -41.23757812 211.956875 -42.00390625 212.03125 C-59.54628724 212.83014401 -77.44658458 205.61980304 -90.6015625 194.375 C-102.87969948 182.73952032 -112.07107219 166.86750579 -112.85010719 149.59265518 C-112.90119774 146.88514839 -112.91944203 144.17917296 -112.92700195 141.47119141 C-112.93357315 140.44263031 -112.94014435 139.41406921 -112.94691467 138.3543396 C-112.96658715 134.95757971 -112.97830005 131.56086403 -112.98828125 128.1640625 C-112.99235678 126.99801861 -112.9964323 125.83197472 -113.00063133 124.63059616 C-113.02147149 118.45246307 -113.03577921 112.27435201 -113.04516602 106.09619141 C-113.05619486 99.75066251 -113.09056029 93.4054877 -113.13033772 87.06008339 C-113.15663361 82.15090333 -113.16486958 77.24180577 -113.16844749 72.33256149 C-113.17328402 69.99566648 -113.1848129 67.65877442 -113.20348549 65.32194901 C-113.37636611 42.24241905 -110.36094488 22.02519042 -93.81152344 4.74829102 C-67.96105816 -21.16007503 -28.59680073 -21.95470654 0 0 Z M-77.21484375 28.73828125 C-83.41877825 37.12069657 -85.05049409 45.75402412 -85.04052734 55.96362305 C-85.04724457 56.95974106 -85.05396179 57.95585907 -85.06088257 58.98216248 C-85.07982046 62.26289921 -85.08378495 65.54343081 -85.0859375 68.82421875 C-85.09236935 71.11717308 -85.099098 73.41012659 -85.10610962 75.70307922 C-85.11807261 80.5070689 -85.12179154 85.31098672 -85.12060547 90.11499023 C-85.12040257 96.24680516 -85.14767928 102.37815511 -85.18214989 108.50986004 C-85.20447756 113.24646588 -85.20844117 117.98296097 -85.20738602 122.71961403 C-85.20973411 124.97886567 -85.21851263 127.23812074 -85.23405075 129.49732018 C-85.40334281 151.30846496 -85.40334281 151.30846496 -74.75 169.8125 C-74.22535156 170.42867187 -73.70070313 171.04484375 -73.16015625 171.6796875 C-66.47223003 179.0128019 -57.60533384 182.9924425 -47.75 183.8125 C-35.34447245 183.94571372 -24.77458669 180.42765364 -15.75 171.8125 C-5.89650696 161.49072214 -3.59713066 149.52689063 -3.60473633 135.67114258 C-3.60137772 134.78231384 -3.5980191 133.89348511 -3.59455872 132.97772217 C-3.5851001 130.0541441 -3.58310799 127.13062365 -3.58203125 124.20703125 C-3.57881452 122.16070025 -3.57545014 120.11436947 -3.57194519 118.06803894 C-3.5659662 113.78192614 -3.56410397 109.49583347 -3.56469727 105.2097168 C-3.56479868 99.74391549 -3.55116273 94.2782447 -3.53392506 88.81247425 C-3.52275099 84.58543822 -3.52077973 80.35843318 -3.52130699 76.1313839 C-3.52013439 74.11775959 -3.51575349 72.10413429 -3.50797462 70.09052467 C-3.39228822 44.91214686 -3.39228822 44.91214686 -15.8046875 23.62890625 C-25.53569647 14.54272317 -35.51806542 12.02673613 -48.58203125 12.46484375 C-60.66292024 13.22724321 -69.64938633 19.69075245 -77.21484375 28.73828125 Z " fill="#CCCCCC" transform="translate(184.75,15.1875)"/>
<path d="M0 0 C4.50650169 4.08729223 5.50526841 8.00222327 5.9453125 13.8828125 C6.03683507 15.88437136 6.12819683 17.88594066 6.21533203 19.88769531 C7.47017481 43.64822474 17.14785518 66.56838281 32.6875 84.4375 C33.39777344 85.28054687 34.10804687 86.12359375 34.83984375 86.9921875 C53.11036378 108.12048659 80.07132621 120.74403064 107.6875 123.4375 C138.67344647 125.50790865 168.91005815 116.38234327 192.49316406 95.86669922 C214.78909865 75.70979203 228.32495039 47.73470742 229.8828125 17.66796875 C229.97175781 15.82138672 229.97175781 15.82138672 230.0625 13.9375 C230.49594108 7.14692307 231.76704027 4.46226186 236.4375 -0.375 C241.31148614 -2.94738157 245.31907767 -2.9730267 250.4375 -1.4375 C254.84558961 1.10562862 257.08010747 3.61532241 258.6875 8.4375 C261.12842967 42.93910205 247.36819702 77.66999458 225.21923828 103.69042969 C203.27988366 128.71402256 172.2918319 147.77725398 138.6875 151.4375 C136.35428052 151.46055013 134.02068065 151.46419302 131.6875 151.4375 C131.69638245 152.00046783 131.70526489 152.56343567 131.7144165 153.14346313 C131.8030807 159.01594871 131.8633131 164.88824336 131.90722656 170.76123047 C131.92731107 172.95141324 131.95458417 175.14154259 131.98925781 177.33154297 C132.03791409 180.48418376 132.06050078 183.63611404 132.078125 186.7890625 C132.09877014 187.76428864 132.11941528 188.73951477 132.14068604 189.74429321 C132.14262612 195.65529292 131.5785958 198.91290713 127.6875 203.4375 C123.81390942 206.85537404 120.01921445 206.90244744 115.0546875 206.7109375 C111.7671883 206.33119337 110.11558594 205.72275735 107.6875 203.4375 C103.6415381 197.45832108 103.13845942 192.09952128 103.296875 185.03125 C103.30253479 184.0659436 103.30819458 183.10063721 103.31402588 182.1060791 C103.33626037 179.04936283 103.38643225 175.99385672 103.4375 172.9375 C103.45758172 170.8541837 103.47582955 168.77084887 103.4921875 166.6875 C103.53608275 161.6037066 103.60501997 156.52080785 103.6875 151.4375 C102.86870361 151.3957666 102.04990723 151.3540332 101.20629883 151.31103516 C93.95766866 150.86104422 87.32214298 149.91181133 80.375 147.8125 C79.47837646 147.54743652 78.58175293 147.28237305 77.65795898 147.00927734 C40.90944513 135.79409783 11.12123548 111.07240007 -7.3125 77.4375 C-17.06128344 58.45666939 -22.4820439 38.01630112 -22.6875 16.6875 C-22.70143799 15.74632324 -22.71537598 14.80514648 -22.72973633 13.83544922 C-22.69553819 8.93312438 -22.62623216 5.33511632 -19.3125 1.4375 C-12.98207448 -3.58753844 -7.01623777 -3.30954612 0 0 Z " fill="#CCCCCC" transform="translate(22.3125,146.5625)"/>
</svg>
