<?xml version="1.0" encoding="UTF-8"?>
<svg version="1.1" xmlns="http://www.w3.org/2000/svg" width="381" height="381">
<path d="M0 0 C1.15560425 -0.00960754 2.3112085 -0.01921509 3.50183105 -0.02911377 C4.73937134 -0.03336365 5.97691162 -0.03761353 7.25195312 -0.04199219 C9.1870575 -0.0505423 9.1870575 -0.0505423 11.16125488 -0.05926514 C13.89136138 -0.06974148 16.62143876 -0.07560478 19.3515625 -0.07910156 C22.80960044 -0.08455142 26.2672377 -0.10851744 29.72515106 -0.13707352 C33.06740847 -0.16046389 36.40961836 -0.16216777 39.75195312 -0.16699219 C40.97329956 -0.17933899 42.194646 -0.19168579 43.45300293 -0.20440674 C62.80637892 -0.15521947 78.40544662 5.67872327 92.22070312 19.32128906 C103.04499497 30.94510246 109.05066271 45.01571972 109.21020508 61.00439453 C109.22945793 62.6980867 109.22945793 62.6980867 109.24909973 64.42599487 C109.25648666 65.63538727 109.2638736 66.84477966 109.27148438 68.09082031 C109.27955612 69.3539505 109.28762787 70.61708069 109.29594421 71.91848755 C109.30975984 74.59315628 109.32078131 77.26770295 109.32836914 79.94238281 C109.33717611 82.65387815 109.3579309 85.36485215 109.38989258 88.07617188 C109.65118833 111.98692319 108.65644541 132.6489259 91.43334961 150.9765625 C78.43452414 164.07434705 62.42818057 169.28558502 44.31515503 169.49032593 C43.12640778 169.49255157 41.93766052 169.49477722 40.71289062 169.49707031 C38.82668503 169.50705551 38.82668503 169.50705551 36.90237427 169.51724243 C34.25150296 169.52732523 31.60104238 169.53293149 28.95019531 169.53173828 C26.26600064 169.53157617 23.5824916 169.54540487 20.8984375 169.57275391 C-2.85347952 169.7974342 -23.42397141 168.81105768 -41.71191406 151.69970703 C-53.20147693 140.25247008 -60.01994008 125.39461337 -60.12792969 109.08666992 C-60.13753723 107.90781723 -60.14714478 106.72896454 -60.15704346 105.51438904 C-60.16129333 104.25183792 -60.16554321 102.9892868 -60.16992188 101.68847656 C-60.17562195 100.37383926 -60.18132202 99.05920197 -60.18719482 97.70472717 C-60.19767085 94.92334613 -60.20353465 92.14199367 -60.20703125 89.3605957 C-60.21248729 85.83296096 -60.236467 82.30571776 -60.2650032 78.77820492 C-60.28382994 76.03346231 -60.28884583 73.28880991 -60.29036713 70.54400826 C-60.29478546 68.62279375 -60.31333602 66.70162794 -60.33233643 64.78050232 C-60.28926002 47.54307507 -55.34602825 33.18038645 -43.96679688 20.16113281 C-43.45761719 19.55785156 -42.9484375 18.95457031 -42.42382812 18.33300781 C-31.70694622 6.58412987 -15.75009217 0.10644076 0 0 Z M-13.96679688 51.16113281 C-17.44017259 57.3479224 -17.40456101 62.98379581 -17.36523438 69.97363281 C-17.36810455 71.1013208 -17.37097473 72.22900879 -17.37393188 73.39086914 C-17.3759673 75.76774601 -17.37047412 78.14463984 -17.35791016 80.52148438 C-17.34184994 84.14914588 -17.35777754 87.77569326 -17.37695312 91.40332031 C-17.3749706 93.71842693 -17.37112674 96.03353285 -17.36523438 98.34863281 C-17.37130707 99.42798096 -17.37737976 100.5073291 -17.38363647 101.61938477 C-17.3058459 109.99326236 -15.89787543 115.88116729 -9.96679688 122.16113281 C-5.32819365 125.40815507 -1.53408362 126.27867976 4.05786133 126.32226562 C5.05602371 126.33187317 6.0541861 126.34148071 7.08259583 126.35137939 C8.69203316 126.35775421 8.69203316 126.35775421 10.33398438 126.36425781 C11.99858955 126.37280792 11.99858955 126.37280792 13.69682312 126.38153076 C16.04453581 126.39097353 18.39226172 126.39751187 20.73999023 126.40136719 C24.32168844 126.41106777 27.90281154 126.44209672 31.484375 126.47363281 C33.76757472 126.48016371 36.05077855 126.48541384 38.33398438 126.48925781 C39.93431267 126.50777802 39.93431267 126.50777802 41.56697083 126.52667236 C49.92339298 126.50178354 55.76743143 125.07880608 62.03320312 119.16113281 C65.28022538 114.52252958 66.15075007 110.72841955 66.19433594 105.13647461 C66.20394348 104.13831223 66.21355103 103.14014984 66.22344971 102.11174011 C66.22769958 101.03878189 66.23194946 99.96582367 66.23632812 98.86035156 C66.2420282 97.75061478 66.24772827 96.64087799 66.25360107 95.49751282 C66.26304384 93.14980012 66.26958218 90.80207422 66.2734375 88.4543457 C66.28313808 84.87264749 66.31416704 81.2915244 66.34570312 77.70996094 C66.35223402 75.42676121 66.35748415 73.14355739 66.36132812 70.86035156 C66.37984833 69.26002327 66.37984833 69.26002327 66.39874268 67.62736511 C66.37385385 59.27094296 64.95087639 53.4269045 59.03320312 47.16113281 C54.3945999 43.91411055 50.60048987 43.04358587 45.00854492 43 C44.01038254 42.99039246 43.01222015 42.98078491 41.98381042 42.97088623 C40.9108522 42.96663635 39.83789398 42.96238647 38.73242188 42.95800781 C37.0678167 42.9494577 37.0678167 42.9494577 35.36958313 42.94073486 C33.02187044 42.9312921 30.67414453 42.92475376 28.32641602 42.92089844 C24.74471781 42.91119785 21.16359471 42.8801689 17.58203125 42.84863281 C15.29883153 42.84210192 13.0156277 42.83685178 10.73242188 42.83300781 C9.66553635 42.82066101 8.59865082 42.80831421 7.49943542 42.79559326 C-1.48895911 42.82236435 -7.40439404 44.59872998 -13.96679688 51.16113281 Z " fill="#CCCCCC" transform="translate(59.966796875,-0.1611328125)"/>
<path d="M0 0 C1.17885269 -0.00960754 2.35770538 -0.01921509 3.57228088 -0.02911377 C4.834832 -0.03336365 6.09738312 -0.03761353 7.39819336 -0.04199219 C9.37014931 -0.0505423 9.37014931 -0.0505423 11.38194275 -0.05926514 C14.16332379 -0.06974116 16.94467625 -0.07560497 19.72607422 -0.07910156 C23.25370897 -0.08455761 26.78095217 -0.10853731 30.308465 -0.13707352 C33.05320761 -0.15590025 35.79786001 -0.16091615 38.54266167 -0.16243744 C40.46387617 -0.16685577 42.38504198 -0.18540633 44.3061676 -0.20440674 C62.78690485 -0.1582233 78.26734583 5.41918077 91.37084961 18.47363281 C104.86311937 32.66733556 109.41962074 49.00098908 109.32397461 68.31738281 C109.32827988 70.27448181 109.32827988 70.27448181 109.33267212 72.27111816 C109.33705234 75.0107714 109.33080582 77.75012784 109.31665039 80.48974609 C109.29956065 83.96231988 109.30942535 87.43419752 109.32736778 90.90674591 C109.34095235 94.272844 109.33137947 97.63876511 109.32397461 101.00488281 C109.3300473 102.23130493 109.33612 103.45772705 109.34237671 104.72131348 C109.20469913 121.87661421 104.25134059 136.20300732 92.92553711 149.16113281 C92.41635742 149.76441406 91.90717773 150.36769531 91.38256836 150.98925781 C81.20948044 162.14197642 66.04099232 168.53632094 51.07180786 169.30830383 C50.08526215 169.31814804 49.09871643 169.32799225 48.08227539 169.33813477 C46.38858322 169.35738762 46.38858322 169.35738762 44.66067505 169.37702942 C42.84658646 169.38810982 42.84658646 169.38810982 40.99584961 169.39941406 C39.73271942 169.40748581 38.46958923 169.41555756 37.16818237 169.4238739 C34.49351364 169.43768953 31.81896698 169.448711 29.14428711 169.45629883 C26.43279177 169.46510579 23.72181778 169.48586059 21.01049805 169.51782227 C-2.96498359 169.77982539 -23.59579305 168.75581258 -41.96240234 151.48876953 C-55.03153471 138.5185292 -60.22116284 121.60364467 -60.37800598 103.5834198 C-60.37709457 102.43730728 -60.37618317 101.29119476 -60.37524414 100.11035156 C-60.37952927 98.89394485 -60.38381439 97.67753815 -60.38822937 96.42427063 C-60.39394071 93.86529153 -60.39449669 91.30629621 -60.39013672 88.74731445 C-60.38698028 84.86999296 -60.41046573 80.99343824 -60.43579102 77.11621094 C-60.43806494 74.61425876 -60.43876707 72.11230456 -60.43774414 69.61035156 C-60.44695389 68.47031174 -60.45616364 67.33027191 -60.46565247 66.15568542 C-60.40328544 55.09544478 -58.76617558 43.92593303 -53.57446289 34.03613281 C-53.23044434 33.37218506 -52.88642578 32.7082373 -52.53198242 32.02416992 C-44.41378388 17.11571658 -31.00556858 6.73573791 -14.79321289 1.81738281 C-9.83557414 0.62071139 -5.09928799 0.03376699 0 0 Z M-13.07446289 50.16113281 C-16.29929805 54.76804018 -17.1950522 58.53841698 -17.21972656 64.09399414 C-17.22610641 65.07213577 -17.23248627 66.0502774 -17.23905945 67.05805969 C-17.24017227 68.10914413 -17.2412851 69.16022858 -17.24243164 70.24316406 C-17.24576004 71.3307048 -17.24908844 72.41824554 -17.2525177 73.53874207 C-17.25757894 75.83938169 -17.25992627 78.14002864 -17.25976562 80.44067383 C-17.26194809 83.94983111 -17.28010149 87.45867193 -17.29907227 90.96777344 C-17.3020072 93.20540257 -17.30399132 95.4430332 -17.30493164 97.68066406 C-17.31211716 98.72567581 -17.31930267 99.77068756 -17.32670593 100.84736633 C-17.29925952 109.65766465 -16.5025746 115.58353013 -10.07446289 122.16113281 C-5.45835328 125.42618595 -1.63228229 126.27875355 3.95019531 126.32226562 C4.9483577 126.33187317 5.94652008 126.34148071 6.97492981 126.35137939 C8.58436714 126.35775421 8.58436714 126.35775421 10.22631836 126.36425781 C11.89092354 126.37280792 11.89092354 126.37280792 13.5891571 126.38153076 C15.9368698 126.39097353 18.2845957 126.39751187 20.63232422 126.40136719 C24.21402243 126.41106777 27.79514552 126.44209672 31.37670898 126.47363281 C33.65990871 126.48016371 35.94311253 126.48541384 38.22631836 126.48925781 C39.82664665 126.50777802 39.82664665 126.50777802 41.45930481 126.52667236 C49.65683266 126.50225679 55.90775659 125.17891333 61.92553711 119.16113281 C66.13410537 112.40640022 66.5149874 106.9232636 66.45678711 99.06738281 C66.46061401 97.9212854 66.46444092 96.77518799 66.46838379 95.59436035 C66.47109563 93.1805737 66.46378574 90.7667573 66.44702148 88.35302734 C66.4256033 84.67250633 66.44684994 80.99393734 66.47241211 77.31347656 C66.46976871 74.9606077 66.46464347 72.60774004 66.45678711 70.25488281 C66.46488403 69.16195923 66.47298096 68.06903564 66.48132324 66.94299316 C66.39474033 59.83793835 65.49240211 53.9981728 60.51379395 48.64245605 C55.97889295 44.61115075 51.70065245 42.91750773 45.69555664 42.88647461 C44.67744904 42.8769426 43.65934143 42.86741058 42.61038208 42.85758972 C40.97587601 42.85895683 40.97587601 42.85895683 39.30834961 42.86035156 C38.17783173 42.85606644 37.04731384 42.85178131 35.88253784 42.84736633 C33.49372018 42.84162948 31.10488506 42.84111801 28.71606445 42.84545898 C25.07073991 42.84861532 21.42622992 42.8251632 17.78100586 42.79980469 C15.45678813 42.79753121 13.13256823 42.79682842 10.80834961 42.79785156 C9.72272736 42.78864182 8.6371051 42.77943207 7.51858521 42.76994324 C-0.88794243 42.82105793 -6.76899379 44.20596755 -13.07446289 50.16113281 Z " fill="#CCCCCC" transform="translate(271.074462890625,-0.1611328125)"/>
<path d="M0 0 C1.2400177 -0.00428513 2.4800354 -0.00857025 3.75762939 -0.01298523 C6.36966342 -0.01870248 8.98171335 -0.01924812 11.59375 -0.01489258 C15.5523652 -0.01173927 19.51022728 -0.03520327 23.46875 -0.06054688 C26.0208324 -0.06282105 28.57291679 -0.06352282 31.125 -0.0625 C32.29005066 -0.07170975 33.45510132 -0.08091949 34.65545654 -0.09040833 C45.78409767 -0.0289491 56.99824577 1.57751734 66.953125 6.80078125 C67.61562256 7.14262451 68.27812012 7.48446777 68.96069336 7.83666992 C79.98610545 13.82265224 87.80715435 22.30743597 93.828125 33.30078125 C94.42367187 34.27917969 94.42367187 34.27917969 95.03125 35.27734375 C100.78895718 45.37481529 101.29022096 57.67057567 101.26171875 69.01171875 C101.2669606 70.26352936 101.27220245 71.51533997 101.27760315 72.80508423 C101.28397727 75.43189763 101.28274685 78.05873975 101.27416992 80.68554688 C101.26566012 84.65938145 101.29449039 88.63177544 101.32617188 92.60546875 C101.39198555 116.53220765 98.48290175 134.75397462 81.58203125 152.68359375 C67.84364847 165.99335703 51.29065104 169.79141059 32.671875 169.69921875 C30.714776 169.70352402 30.714776 169.70352402 28.71813965 169.70791626 C25.97848641 169.71229648 23.23912997 169.70604996 20.49951172 169.69189453 C17.02693794 169.67480479 13.55506029 169.68466949 10.0825119 169.70261192 C6.71641382 169.71619649 3.3504927 169.70662361 -0.015625 169.69921875 C-1.24204712 169.70529144 -2.46846924 169.71136414 -3.73205566 169.71762085 C-22.13550085 169.56992645 -37.56673592 163.98987969 -50.6171875 150.98828125 C-64.02428847 136.88417503 -68.66740942 120.60792728 -68.5703125 101.3984375 C-68.57318268 100.11827255 -68.57605286 98.8381076 -68.57901001 97.51914978 C-68.58338974 94.83076904 -68.57714645 92.14269077 -68.56298828 89.4543457 C-68.54591597 86.05136738 -68.55575251 82.64910037 -68.57370567 79.24614811 C-68.58731075 75.94269149 -68.57771349 72.63941414 -68.5703125 69.3359375 C-68.57638519 68.13655045 -68.58245789 66.93716339 -68.5887146 65.70143127 C-68.43074197 46.35298053 -62.54265116 31.005992 -49.046875 17.11328125 C-35.12761561 3.98940811 -18.60312506 -0.0144526 0 0 Z M-21.171875 50.30078125 C-24.41467268 54.93334937 -25.28932695 58.72473378 -25.33300781 64.30957031 C-25.34261536 65.304505 -25.3522229 66.2994397 -25.36212158 67.32452393 C-25.36637146 68.39434509 -25.37062134 69.46416626 -25.375 70.56640625 C-25.38070007 71.67377136 -25.38640015 72.78113647 -25.39227295 73.92205811 C-25.40171646 76.26557461 -25.40825435 78.60910436 -25.41210938 80.95263672 C-25.42180055 84.52335018 -25.45282495 88.09348443 -25.484375 91.6640625 C-25.49090687 93.94400701 -25.49615662 96.22395562 -25.5 98.50390625 C-25.5123468 99.56563049 -25.5246936 100.62735474 -25.53741455 101.72125244 C-25.51691284 108.6041852 -25.04644275 114.7722834 -20.5234375 120.32421875 C-19.66878906 120.99324219 -19.66878906 120.99324219 -18.796875 121.67578125 C-18.23226562 122.13726562 -17.66765625 122.59875 -17.0859375 123.07421875 C-13.10523922 125.6251152 -9.56839878 126.55175306 -4.8659668 126.59130859 C-3.83106613 126.6040683 -2.79616547 126.616828 -1.72990417 126.62997437 C-0.62149673 126.63220001 0.48691071 126.63442566 1.62890625 126.63671875 C3.35441963 126.64670395 3.35441963 126.64670395 5.11479187 126.65689087 C7.54648238 126.66700656 9.97820058 126.67170822 12.40991211 126.67138672 C16.11684311 126.67575324 19.82257692 126.71206825 23.52929688 126.75 C25.89582928 126.75586978 28.26236732 126.75983809 30.62890625 126.76171875 C32.28240837 126.7832753 32.28240837 126.7832753 33.96931458 126.80526733 C41.53810187 126.76067271 47.24452707 125.78237924 52.88671875 120.30078125 C53.34175781 119.64078125 53.79679687 118.98078125 54.265625 118.30078125 C54.97525391 117.31078125 54.97525391 117.31078125 55.69921875 116.30078125 C57.72567367 112.71066043 57.95750467 109.34996268 57.98925781 105.27612305 C57.99886536 104.27796066 58.0084729 103.27979828 58.01837158 102.25138855 C58.02262146 101.17843033 58.02687134 100.10547211 58.03125 99 C58.03695007 97.89026321 58.04265015 96.78052643 58.04852295 95.63716125 C58.05796571 93.28944856 58.06450406 90.94172266 58.06835938 88.59399414 C58.07805996 85.01229593 58.10908891 81.43117284 58.140625 77.84960938 C58.1471559 75.56640965 58.15240603 73.28320583 58.15625 71 C58.1747702 69.39967171 58.1747702 69.39967171 58.19366455 67.76701355 C58.16877573 59.4105914 56.74579826 53.56655294 50.828125 47.30078125 C46.18952177 44.05375899 42.39541174 43.18323431 36.8034668 43.13964844 C35.80530441 43.13004089 34.80714203 43.12043335 33.7787323 43.11053467 C32.70577408 43.10628479 31.63281586 43.10203491 30.52734375 43.09765625 C28.86273857 43.08910614 28.86273857 43.08910614 27.164505 43.0803833 C24.81679231 43.07094054 22.46906641 43.06440219 20.12133789 43.06054688 C16.53963968 43.05084629 12.95851659 43.01981734 9.37695312 42.98828125 C7.0937534 42.98175035 4.81054958 42.97650022 2.52734375 42.97265625 C1.46045822 42.96030945 0.39357269 42.94796265 -0.7056427 42.9352417 C-9.06206485 42.96013052 -14.90610331 44.38310799 -21.171875 50.30078125 Z " fill="#CCCCCC" transform="translate(68.171875,210.69921875)"/>
<path d="M0 0 C2.25866771 -0.00436177 4.51536056 -0.04068314 6.77368164 -0.07861328 C14.33883948 -0.13922591 20.56197525 -0.13070252 26.96313477 4.37060547 C29.02172852 6.40576172 29.02172852 6.40576172 30.40063477 8.43310547 C30.8737207 9.10470703 31.34680664 9.77630859 31.83422852 10.46826172 C34.18416428 14.42818807 34.11705679 18.13879317 34.12426758 22.5925293 C34.13171494 23.69063683 34.13171494 23.69063683 34.13931274 24.81092834 C34.15391909 27.23317404 34.16073411 29.65535422 34.16625977 32.07763672 C34.17201286 33.76291404 34.17777058 35.44819134 34.18353271 37.13346863 C34.19403862 40.66832789 34.19988384 44.20316443 34.20336914 47.73803711 C34.20885034 52.26073848 34.23287198 56.78313826 34.26134109 61.30574512 C34.27999418 64.78794727 34.28517451 68.27007718 34.28670502 71.75232506 C34.28972649 73.41924372 34.29773796 75.08616126 34.3108902 76.75303078 C34.32800547 79.08908436 34.3260573 81.42440666 34.31958008 83.76049805 C34.32879486 84.44486938 34.33800964 85.12924072 34.34750366 85.83435059 C34.29667408 91.70654564 32.49063732 95.53760241 28.77563477 99.99560547 C20.1726746 107.26032739 11.95959314 106.96434957 1.27563477 106.90185547 C-0.35286693 106.90455435 -1.98136706 106.90844006 -3.60986328 106.91345215 C-7.01244545 106.91932864 -10.41460579 106.9108445 -13.81713867 106.89208984 C-18.16146936 106.86930098 -22.50481135 106.88243408 -26.84910583 106.9063797 C-30.20877425 106.92088811 -33.56821128 106.91620875 -36.92788696 106.90586853 C-38.52894205 106.90321514 -40.13001869 106.90642178 -41.73104858 106.91578674 C-58.5705654 106.99268911 -58.5705654 106.99268911 -66.06030273 100.65966797 C-70.62755393 95.03640494 -72.55446391 90.04067083 -72.34545898 82.73779297 C-71.44699531 75.84578045 -68.28260757 70.94467078 -63.01342773 66.56201172 C-57.0323819 62.95683587 -51.1438395 63.10378831 -44.38842773 63.17529297 C-43.37589935 63.17812286 -42.36337097 63.18095276 -41.32015991 63.18386841 C-38.10060585 63.19502293 -34.88133458 63.220119 -31.66186523 63.24560547 C-29.47306718 63.25564137 -27.28426475 63.26476616 -25.09545898 63.27294922 C-19.74239899 63.29324133 -14.389947 63.33239949 -9.03686523 63.37060547 C-9.03686523 56.77060547 -9.03686523 50.17060547 -9.03686523 43.37060547 C-12.00686523 42.71060547 -14.97686523 42.05060547 -18.03686523 41.37060547 C-23.51836273 38.62985672 -26.39073848 34.76828234 -29.03686523 29.37060547 C-31.04729606 22.67765222 -30.08338312 17.05677479 -27.37280273 10.74169922 C-21.33577037 0.02684938 -11.04896997 -0.00238974 0 0 Z " fill="#CCCCCC" transform="translate(346.036865234375,210.62939453125)"/>
<path d="M0 0 C4.88046581 3.64564916 8.0499254 8.74825154 9.26953125 14.6953125 C9.3533751 16.22180036 9.38735097 17.75149074 9.38305664 19.28027344 C9.38298111 20.18090515 9.38290558 21.08153687 9.38282776 22.00946045 C9.37766647 22.97313538 9.37250519 23.9368103 9.3671875 24.9296875 C9.36577255 25.92284973 9.3643576 26.91601196 9.36289978 27.93927002 C9.35730713 31.10798162 9.34475595 34.27662229 9.33203125 37.4453125 C9.3270153 39.59505106 9.32245256 41.74479073 9.31835938 43.89453125 C9.30734011 49.16148249 9.29060925 54.42839243 9.26953125 59.6953125 C9.98770523 59.68300095 10.70587921 59.67068939 11.44581604 59.65800476 C13.42595562 59.62405951 15.40610442 59.59064858 17.38626099 59.55770874 C19.45679297 59.52108337 21.52717297 59.4755861 23.59741211 59.42504883 C31.19628671 59.36258128 37.3819636 60.48646724 44.01953125 64.2578125 C48.61993284 69.24158089 51.53645721 74.97988462 51.83203125 81.8203125 C51.3863785 89.12216136 48.56641953 93.77679218 43.20703125 98.6328125 C39.1945598 102.01376253 36.2154703 102.81813112 31.00708008 102.87231445 C29.39444023 102.89156731 29.39444023 102.89156731 27.7492218 102.91120911 C26.58674423 102.91859604 25.42426666 102.92598297 24.2265625 102.93359375 C23.02899826 102.9416655 21.83143402 102.94973724 20.59757996 102.95805359 C18.05977832 102.97189429 15.52195806 102.9826165 12.98413086 102.99047852 C9.11470939 103.00766734 5.24614754 103.05155282 1.37695312 103.09570312 C-1.08983747 103.10583226 -3.55663533 103.11434767 -6.0234375 103.12109375 C-7.75197212 103.14735588 -7.75197212 103.14735588 -9.51542664 103.17414856 C-17.23781298 103.15343785 -23.06646401 102.31760182 -28.7890625 96.66015625 C-29.47162109 95.65662109 -29.47162109 95.65662109 -30.16796875 94.6328125 C-30.87759766 93.62541016 -30.87759766 93.62541016 -31.6015625 92.59765625 C-33.96750596 88.61075499 -33.87310768 85.140313 -33.9074707 80.59692383 C-33.9140419 79.8778183 -33.9206131 79.15871277 -33.92738342 78.41781616 C-33.94709436 76.03765758 -33.95877577 73.65756211 -33.96875 71.27734375 C-33.97282553 70.462638 -33.97690105 69.64793224 -33.98110008 68.80853844 C-34.00195419 64.49402496 -34.01625719 60.1795432 -34.02563477 55.86499023 C-34.03668124 51.42086134 -34.07106231 46.97723562 -34.11080647 42.53328419 C-34.13702714 39.10590217 -34.14533155 35.67863888 -34.14891624 32.25116539 C-34.15377031 30.61379293 -34.16535053 28.97642535 -34.18395424 27.33915138 C-34.3679433 10.06938815 -34.3679433 10.06938815 -27.984375 2.671875 C-19.08681141 -4.43795641 -10.24759514 -5.64828079 0 0 Z " fill="#CCCCCC" transform="translate(244.73046875,277.3046875)"/>
<path d="M0 0 C1.58260872 -0.01925285 1.58260872 -0.01925285 3.19718933 -0.03889465 C4.33779312 -0.04628159 5.47839691 -0.05366852 6.65356445 -0.0612793 C7.82893265 -0.06935104 9.00430084 -0.07742279 10.21528625 -0.08573914 C12.70600917 -0.09957929 15.19675104 -0.11030175 17.6875 -0.11816406 C21.4845001 -0.13535163 25.28062388 -0.17923733 29.07739258 -0.22338867 C31.49861014 -0.23351795 33.9198351 -0.24203331 36.34106445 -0.2487793 C38.03678841 -0.27504143 38.03678841 -0.27504143 39.76676941 -0.30183411 C47.45913688 -0.28081819 52.86167124 0.75315932 58.8527832 5.9230957 C63.43686883 11.65982713 65.36813223 16.02445297 65.2121582 23.4777832 C64.37590637 29.37421197 61.58000376 34.33171373 57.5168457 38.61450195 C50.15946438 42.89204924 43.97226029 43.62594312 35.6105957 43.57543945 C34.02462585 43.57974472 34.02462585 43.57974472 32.40661621 43.58413696 C30.18114686 43.58616967 27.95565933 43.5806956 25.73022461 43.56811523 C22.33967833 43.55205091 18.95032402 43.56799168 15.55981445 43.5871582 C13.38923893 43.58517563 11.21866414 43.58133167 9.0480957 43.57543945 C7.539953 43.58454849 7.539953 43.58454849 6.00134277 43.59384155 C-2.53438464 43.50928393 -9.32112641 41.79100066 -15.6940918 35.82543945 C-20.38343776 30.59024369 -20.77631427 24.97253741 -20.58081055 18.1809082 C-19.8201477 12.60995839 -17.53783335 8.33698809 -13.38549805 4.5480957 C-8.92624847 1.22496067 -5.45637065 0.05784912 0 0 Z " fill="#CCCCCC" transform="translate(231.170654296875,210.822998046875)"/>
<path d="M0 0 C1.13308594 -0.01611328 2.26617187 -0.03222656 3.43359375 -0.04882812 C12.85588794 -0.05428716 20.69374952 1.05266776 27.68359375 7.734375 C32.50535585 13.01348581 32.65334727 18.2195044 32.47265625 25.1171875 C31.82001816 31.11559153 29.64107838 35.22160376 25.125 39.1875 C20.04932112 42.78277254 16.57773136 43.63726796 10.359375 43.68359375 C9.60714661 43.69262222 8.85491821 43.7016507 8.07989502 43.71095276 C6.48966435 43.72543617 4.89937435 43.73433726 3.30908203 43.73803711 C0.89641596 43.74989475 -1.51365757 43.79905884 -3.92578125 43.84960938 C-18.97958721 44.00839778 -18.97958721 44.00839778 -24.875 38.3125 C-25.36887207 37.84787354 -25.86274414 37.38324707 -26.37158203 36.90454102 C-30.24616664 32.78084655 -31.8800522 28.49033543 -31.87109375 22.85546875 C-31.26678552 14.27943492 -28.52644923 9.53453955 -22.203125 3.828125 C-15.41844847 -0.58874495 -7.81826793 -0.0220855 0 0 Z " fill="#CCCCCC" transform="translate(347.875,336.6875)"/>
</svg>
