<?xml version="1.0" encoding="UTF-8"?>
<svg version="1.1" xmlns="http://www.w3.org/2000/svg" width="347" height="347">
<path d="M0 0 C0.76166473 -0.00067474 1.52332947 -0.00134949 2.30807495 -0.00204468 C13.65227576 0.0139316 24.59439792 0.40570011 35.625 3.25 C36.32786133 3.42692383 37.03072266 3.60384766 37.75488281 3.78613281 C66.38913379 11.17767598 91.7213545 25.23560671 112.625 46.25 C113.33946289 46.9605957 113.33946289 46.9605957 114.06835938 47.68554688 C140.78029327 74.54485695 156.44495322 112.48850306 157.625 150.25 C157.66496094 151.1575 157.70492188 152.065 157.74609375 153 C158.53467494 186.39873273 148.38727615 223.07519805 126.98828125 249.19140625 C125.25690538 251.3943205 125.25690538 251.3943205 125.625 255.25 C127.47201667 257.45592409 129.30172953 259.4004954 131.3605957 261.39208984 C131.97025177 261.99751114 132.57990784 262.60293243 133.20803833 263.22669983 C134.53447022 264.54125021 135.86554745 265.85112583 137.20064735 267.1568718 C139.31508563 269.2249281 141.41724893 271.30477688 143.51664734 273.38809204 C147.97917793 277.81169179 152.45796153 282.21863547 156.9375 286.625 C162.11758002 291.72468798 167.29088588 296.83104992 172.45290184 301.9490242 C174.52213493 303.99511161 176.60059345 306.03149258 178.67976379 308.06747437 C179.9539956 309.32760596 181.22783541 310.58813409 182.5012207 311.84912109 C183.0795314 312.41036179 183.6578421 312.97160248 184.25367737 313.54985046 C188.94282969 318.22446134 192.04476605 322.7850554 192.125 329.625 C191.9474981 335.29734318 190.47873573 339.08247408 186.625 343.25 C182.15931208 347.34451386 177.44939053 347.72985896 171.56640625 347.87890625 C164.43453107 346.35402988 158.99444631 341.05729467 154.02539062 335.9909668 C153.41950104 335.38551529 152.81361145 334.78006378 152.18936157 334.15626526 C150.21278451 332.17761858 148.24701396 330.18860335 146.28125 328.19921875 C144.90328712 326.81565343 143.52465503 325.43275431 142.14538574 324.05049133 C138.5351743 320.42888228 134.93406757 316.79835224 131.33483887 313.16583252 C127.65320489 309.45338776 123.96295357 305.74953037 120.2734375 302.04492188 C113.04887467 294.78828466 105.83390976 287.52218524 98.625 280.25 C96.99099243 281.17570801 96.99099243 281.17570801 95.32397461 282.12011719 C94.40484535 282.64082794 94.40484535 282.64082794 93.46714783 283.17205811 C90.63037766 284.83200817 87.92065164 286.67571151 85.1875 288.5 C50.28286524 311.13856397 7.3641188 318.35350092 -33.2512207 309.72827148 C-73.7937835 300.40653773 -109.68364164 275.66978298 -132.02539062 240.45654297 C-152.58887789 206.83628285 -162.07938739 164.31341389 -153.41015625 125.28515625 C-153.07297597 123.93810929 -152.72748664 122.59312293 -152.375 121.25 C-152.17632324 120.46737793 -151.97764648 119.68475586 -151.77294922 118.87841797 C-141.07048155 77.71199737 -115.64943764 43.01162257 -79.18359375 21.01171875 C-54.68019107 6.68975805 -28.27017301 0.02243574 0 0 Z M-84.375 70.25 C-85.04789063 70.85972656 -85.72078125 71.46945313 -86.4140625 72.09765625 C-104.8220021 89.36885057 -115.00243197 113.84923576 -119.375 138.25 C-119.50777344 138.98992187 -119.64054687 139.72984375 -119.77734375 140.4921875 C-124.06137205 170.65644157 -115.46702981 202.80780485 -97.65625 227.328125 C-94.11581596 231.86279051 -90.35598769 236.09975262 -86.375 240.25 C-85.61703125 241.07113281 -84.8590625 241.89226562 -84.078125 242.73828125 C-62.9459618 264.94086449 -32.59478428 276.83567636 -2.19335938 277.6015625 C31.33415631 277.8803776 62.59783465 265.56247467 86.75 242.21875 C110.13581273 218.64280871 122.05872333 187.03375688 121.92529297 154.04443359 C121.31958479 120.45764201 107.05042359 91.02318106 83.36010742 67.56689453 C60.17173674 45.31047164 28.61284569 34.61265718 -3.2265625 35.03515625 C-34.35895758 35.98266393 -62.06638874 48.9198366 -84.375 70.25 Z " fill="#CCCCCC" transform="translate(155.375,-0.24999999999999997)"/>
</svg>
