<?xml version="1.0" encoding="UTF-8"?>
<svg version="1.1" xmlns="http://www.w3.org/2000/svg" width="461" height="405">
<path d="M0 0 C1.24302429 0.9692079 2.48153046 1.94424589 3.71484375 2.92578125 C6.7303772 5.3456538 6.7303772 5.3456538 9.5703125 4.54296875 C10.37210938 4.03378906 11.17390625 3.52460938 12 3 C12.92554688 2.43925781 13.85109375 1.87851562 14.8046875 1.30078125 C15.81789062 0.64464844 16.83109375 -0.01148437 17.875 -0.6875 C48.4545353 -19.85767506 87.92616574 -26.79299969 123.31640625 -18.96875 C124.53199219 -18.6490625 125.74757813 -18.329375 127 -18 C128.00909424 -17.75056641 128.00909424 -17.75056641 129.03857422 -17.49609375 C151.45722005 -11.90308439 171.66410831 -1.26397725 189 14 C189.92425781 14.79148438 190.84851563 15.58296875 191.80078125 16.3984375 C198.2785016 22.07876212 203.79722647 28.13909063 209 35 C209.59296875 35.77730469 210.1859375 36.55460937 210.796875 37.35546875 C227.95528138 60.84989216 237.70195075 88.95614798 239 118 C239.061875 119.35351562 239.061875 119.35351562 239.125 120.734375 C240.00999738 160.78050665 224.01326431 197.08924235 197 226 C192.41771175 230.77541102 187.7297432 235.44808511 183.05761719 240.13525391 C181.66836229 241.53242781 180.27928337 242.92977672 178.8903656 244.32728577 C174.36290483 248.88073779 169.83019821 253.42894807 165.296875 257.9765625 C163.72800446 259.55080034 162.15913903 261.12504328 160.59027863 262.69929123 C154.06228445 269.24887188 147.53286545 275.79702657 140.99972153 282.34147072 C131.67504229 291.68239382 122.35896397 301.03171 113.05466151 310.39293158 C106.48818998 316.99818758 99.91208238 323.59375207 93.32883 330.18228281 C89.4071149 334.1076368 85.48962585 338.03699396 81.58242035 341.9767952 C77.9062986 345.68315096 74.21828973 349.37726348 70.52116585 353.06266594 C69.17412873 354.40948368 67.8312883 355.76051545 66.49323082 357.11625481 C51.24700732 372.55276638 33.58234852 384.00766777 11.1484375 384.38061523 C-18.34411303 384.3209032 -36.22714082 371.08870605 -56.28710938 350.98754883 C-57.70050934 349.57850378 -59.11432412 348.16987474 -60.52851868 346.7616272 C-64.34521952 342.9582445 -68.15556563 339.14855688 -71.96434212 335.33724046 C-75.15557851 332.14492934 -78.34979794 328.95561113 -81.54396009 325.7662279 C-89.08585212 318.23540651 -96.62243432 310.69930022 -104.15576172 303.15991211 C-111.9018841 295.40775326 -119.65713186 287.66481066 -127.41691542 279.92632848 C-134.10206822 273.25884653 -140.78134012 266.58551246 -147.45603991 259.90756625 C-151.43233228 255.92946942 -155.41076626 251.953579 -159.39494324 247.98337746 C-163.14460181 244.24638192 -166.88680437 240.50207099 -170.62364769 236.75226212 C-171.987519 235.38604373 -173.35389287 234.02231775 -174.72309303 232.6614399 C-196.22824042 211.27749349 -211.0448754 187.32588193 -219 158 C-219.34289062 156.74832031 -219.68578125 155.49664062 -220.0390625 154.20703125 C-224.43681123 134.37606149 -224.21652719 109.60911424 -219 90 C-218.74259033 88.97712891 -218.74259033 88.97712891 -218.47998047 87.93359375 C-208.76353182 49.65825358 -184.00099241 17.84904825 -150.32470703 -2.55224609 C-104.82505461 -29.04528187 -44.54661589 -28.03796754 0 0 Z M-139 50 C-139.81082031 50.66644531 -140.62164062 51.33289063 -141.45703125 52.01953125 C-158.55909545 66.59963206 -170.28154047 88.63326858 -173 111 C-174.56190243 139.26495366 -169.49104708 164.67597724 -150.2074585 186.32447815 C-144.12501952 193.05092695 -137.71041014 199.43768856 -131.29785156 205.84741211 C-129.93499844 207.21326326 -128.57234851 208.57931719 -127.20988464 209.94555664 C-123.53699442 213.62721805 -119.86092632 217.30568994 -116.18396854 220.98328853 C-113.88458515 223.28338547 -111.5859164 225.58419413 -109.28749847 227.88525581 C-101.2636846 235.91829491 -93.23731852 243.94877353 -85.20849609 251.97680664 C-77.73014258 259.45455766 -70.25740454 266.9378883 -62.78723359 274.42381281 C-56.36171797 280.86239479 -49.93236222 287.2971249 -43.49999022 293.7288571 C-39.66292864 297.56566376 -35.82743513 301.40400647 -31.9957962 305.24622917 C-28.39850681 308.85318616 -24.7964659 312.45532883 -21.19069862 316.05381012 C-19.86874351 317.37471826 -18.54849526 318.69733715 -17.23008537 320.02178383 C-15.43054053 321.8290344 -13.62494113 323.63001265 -11.81768799 325.42955017 C-11.29754946 325.95483226 -10.77741093 326.48011435 -10.24151063 327.02131408 C-4.70459701 332.5061129 0.00571804 335.10202009 7.75 335.25 C8.54921875 335.27578125 9.3484375 335.3015625 10.171875 335.328125 C17.6774129 334.45731674 22.39821242 331.34125536 27.52012634 326.11479187 C28.1249774 325.51774077 28.72982845 324.92068967 29.35300833 324.3055461 C31.36445711 322.31394345 33.35767167 320.30506507 35.35131836 318.2956543 C36.79497288 316.85877952 38.23968793 315.42296961 39.68537903 313.98814392 C43.60209829 310.09419364 47.50286472 306.1846213 51.40027308 302.27135444 C55.49117176 298.16777003 59.59428725 294.07643018 63.69544983 289.98310852 C70.58650779 283.10114544 77.46696337 276.20871405 84.34155273 269.31030273 C92.26652505 261.35818461 100.20926049 253.42415134 108.16158956 245.49939793 C115.00422147 238.67953805 121.83695806 231.84987914 128.66168886 225.01210529 C132.73064471 220.93539103 136.80281511 216.86204187 140.883955 212.79752159 C144.72772596 208.96831157 148.55883712 205.12685113 152.38096428 201.27604103 C153.77739654 199.87305695 155.1779902 198.47419918 156.58325577 197.08006287 C176.94143617 176.8681609 189.14989563 153.36193503 189.3125 124.1875 C189.32878771 97.03227027 179.93134025 74.44814381 160.93359375 54.84765625 C141.84172085 35.9225246 117.34483546 27.7176397 90.81103516 27.68310547 C81.37962982 27.79329497 72.93474649 29.02630855 64 32 C63.3591748 32.20898926 62.71834961 32.41797852 62.05810547 32.63330078 C48.14967179 37.31385509 36.99275628 44.80208081 26.40625 54.828125 C20.06555232 60.55122225 13.98500474 62.35899863 5.578125 62.19921875 C-2.32573364 61.58846604 -6.53439857 57.83936241 -12.18359375 52.53515625 C-47.43079815 20.80778364 -102.48188708 18.72685842 -139 50 Z " fill="#CCCCCC" transform="translate(222,21)"/>
</svg>
